<svg viewBox="0 0 163.5 149.87"><path d="M61.31,37.47h6.81V27.25h88.56V88.56H105.59v6.81H163.5V0H61.31ZM68.12,6.81h88.56V20.44H68.12Z"></path><path d="M102.19,40.87H0V126H102.19Zm-6.82,78.35H6.81V68.12H95.37Zm0-57.91H6.81V47.69H95.37Z"></path><polygon points="132.84 143.06 44.28 143.06 44.28 129.43 37.47 129.43 37.47 149.87 139.65 149.87 139.65 98.78 132.84 98.78 132.84 143.06"></polygon><rect x="74.94" y="10.22" width="6.81" height="6.81"></rect><rect x="88.56" y="10.22" width="6.81" height="6.81"></rect><rect x="102.19" y="10.22" width="6.81" height="6.81"></rect><rect x="27.25" y="51.09" width="6.81" height="6.81"></rect><rect x="40.87" y="51.09" width="6.81" height="6.81"></rect></svg>